<?xml version="1.0" encoding="utf-8"?>
<!-- Generator: Adobe Illustrator 23.0.5, SVG Export Plug-In . SVG Version: 6.00 Build 0)  -->
<svg version="1.1" id="Layer_1" xmlns="http://www.w3.org/2000/svg" xmlns:xlink="http://www.w3.org/1999/xlink" x="0px" y="0px"
	 width="2000px" height="2000px" viewBox="0 0 2000 2000" style="enable-background:new 0 0 2000 2000;" xml:space="preserve">
<style type="text/css">
	.st0{display:none;fill:#FAFAFA;}
	.st1{fill:#BA7FDD;}
	.st2{fill:#C780D1;}
	.st3{fill:#DB7FD0;}
</style>
<rect x="0" class="st0" width="2000" height="2000"/>
<path class="st1" d="M754.1,1578.8L754.1,1578.8c20.8,20.8,54.4,20.8,75.2,0l751.1-751.1c20.8-20.8,20.8-54.4,0-75.2l0,0
	c-20.8-20.8-54.4-20.8-75.2,0l-751.1,751.1C733.3,1524.4,733.3,1558.1,754.1,1578.8z"/>
<circle class="st2" cx="1151" cy="524.1" r="118.5"/>
<path class="st3" d="M457.8,966.9l18.6-71.9c4.3-16.4,0.1-33.9-11-46.7l-48.7-56.1c-28-32.3-6.9-82.6,35.8-85.2l74.1-4.5
	c16.9-1,32.3-10.3,41-24.9l38.3-63.6c22-36.6,76.5-32.1,92.1,7.7l27.2,69.1c6.2,15.8,19.8,27.5,36.3,31.3l72.3,16.8
	c41.6,9.6,54.1,62.8,21.1,90l-57.3,47.2c-13.1,10.8-20,27.3-18.6,44.2l6.4,74c3.7,42.6-43,70.9-79.1,47.9l-62.6-39.9
	c-14.3-9.1-32.2-10.6-47.8-4l-68.4,29C488.5,1043.9,447.1,1008.3,457.8,966.9z"/>
</svg>
